<svg version="1.1" viewbox="0 0 1000 600">
  <style>
    svg {width: 100%; height: 600px; background-color: #eeeeee; font-family: sans;}
    .box {fill: #cccccc; stroke: #000000; stroke-width: 1px;}
    path {stroke-width: 2; stroke: #000000; fill: none;}
    path.down {stroke: #ff0000;}
    path.up {stroke: #0000ff;}
    path.disk {stroke-width: 1;}
   
    polyline {stroke: #777777; fill: none; stroke-dasharray: 1 1;}

    circle {stroke-width: 2; stroke: #000000;}
    text {font-size: 10; font-weight: normal;}
    text.object {font-weight: bold;}
    text.desc {font-weight: normal;}
    text.tech {font-weight: normal; font-style: italic;}
    text.layer {font-size: 12;}
  </style>
  
  <!-- Define Marker -->
  <marker id="arrowstart" markerWidth="10" markerHeight="10" refx="2" refy="5" orient="auto">
    <path d="M5,8 L2,5 5,2" style="fill: none; stroke-width: 0.5;" />
  </marker>
  <marker id="arrowend" markerWidth="10" markerHeight="10" refx="5" refy="5" orient="auto">
    <path d="M2,2 L5,5 2,8" style="fill: none; stroke-width: 0.5;" />
  </marker>
  
  <!-- Layer descriptions -->
  <text class="layer" x="10" y="45">client interaction</text>
  <text class="layer" x="10" y="125">server rendering</text>
  <text class="layer" x="10" y="205">request handling</text>
  <text class="layer" x="10" y="285">processing and validation</text>
  <text class="layer" x="10" y="365">data abstraction</text>
  <text class="layer" x="10" y="445">data access</text>
  
  <!-- Layer lines -->
  <polyline points="0,45 1000,45" />
  <polyline points="0,125 1000,125" />
  <polyline points="0,205 1000,205" />
  <polyline points="0,285 1000,285" />
  <polyline points="0,365 1000,365" />
  <polyline points="0,445 1000,445" />
    
  <!-- Define box -->
  <symbol id="box">
    <rect x="1" y="1" width="148" height="48" rx="5" ry="5" />
  </symbol>

  <!-- Connectors -->
  <path d="M 150,20 l 0,15 c 0,10 0,10 10,10 l 40,0" style="marker-end: url(#arrowend);" />
  
  <path class="up" d="M 349,45 l 52,0" style="marker-start: url(#arrowstart);" />
  <path class="up" d="M 549,45 l 52,0" style="marker-end: url(#arrowend);" />
  <path class="down" d="M 275,69 l 0,112" style="marker-end: url(#arrowend);" />
  <path class="up" d="M 475,69 l 0,32" style="marker-start: url(#arrowstart)" />

  <path class="up" d="M 549,125 l 52,0" style="marker-start: url(#arrowstart);" />
  <path class="up" d="M 749,125 l 15,0 c 10,0 10,0 10,10 l 0,45" style="marker-start: url(#arrowstart);" />

  <path class="down" d="M 349,205 l 52,0" style="marker-end: url(#arrowend);" />
  <path class="down" d="M 475,229 l 0,32" style="marker-end: url(#arrowend)" />
  <path class="up" d="M 785,229 l 0,7 c 0,10 0,10 10,10 l 70,0 c 10,0 10,0 10,10 l 0,5" style="marker-start: url(#arrowstart)" />
  <path class="up" d="M 775,229 l 0,60 c 0,10 0,10 -10,10 l -70,0 c -10,0 -10,0 -10,10 l 0,32" style="marker-start: url(#arrowstart)" />
  <path class="up" d="M 765,229 l 0,52 c 0,10 0,10 -10,10 l -160,0 c -10,0 -10,0 -10,10 l 0,52 c 0,10 0,10 -10,10 l -25,0" style="marker-start: url(#arrowstart)" />
  <path class="up" d="M 755,229 l 0,44 c 0,10 0,10 -10,10 l -160,0 c -10,0 -10,0 -10,10 l 0,30 c 0,10 0,10 -10,10 l -180,0 c -10,0 -10,0 -10,10 l 0,15 c 0,10 0,10 -10,10 l -16,0" style="marker-start: url(#arrowstart)" />

  <path class="down" d="M 465,309 l 0,1 c 0,10 0,10 -10,10 l -150,0 c -10,0 -10,0 -10,10 l 0,11" style="marker-end: url(#arrowend)" />
  <path class="down" d="M 475,309 l 0,32" style="marker-end: url(#arrowend)" />
  <path class="down" d="M 485,309 l 0,7 c 0,10 0,10 10,10 l 150,0 c 10,0 10,0 10,10 l 0,5" style="marker-end: url(#arrowend)" />
  <path class="down" d="M 495,309 l 0,1 c 0,10 0,10 10,10 l 350,0 c 10,0 10,0 10,10 l 0,11" style="marker-end: url(#arrowend)" />
  <path class="up" d="M 875,309 l 0,32" style="marker-start: url(#arrowstart)" />

  <path d="M 275,389 l 0,55 c 0,10 0,10 10,10 l 215,0" style="marker-start: url(#arrowstart); marker-end: url(#arrowend);" />  
  <path d="M 475,389 l 0,35 c 0,10 0,10 10,10 l 15,0" style="marker-start: url(#arrowstart); marker-end: url(#arrowend);" />
  <path d="M 675,389 l 0,35 c 0,10 0,10 -10,10 l -15,0" style="marker-start: url(#arrowstart); marker-end: url(#arrowend);" />
  <path d="M 875,389 l 0,55 c 0,10 0,10 -10,10 l -215,0" style="marker-start: url(#arrowstart); marker-end: url(#arrowend);" />
  
  
  <path d="M 575,469 l 0,30" style="marker-start: url(#arrowstart); marker-end: url(#arrowend);" />
  
  <circle cx="150" cy="15" r="10" />
  
  <!-- Boxes -->
  <!-- Client level -->
  <use  class="box" xlink:href="#box" x="200" y="20" />
  <text class="object" x="275" y="30"  text-anchor="middle" >Controls</text>
  <text class="desc" x="275" y="42"  text-anchor="middle" >forms, buttons, and fields</text>
  <text class="desc" x="275" y="54"  text-anchor="middle" >validation and AJAX calls</text>
  <text class="tech" x="275" y="66"  text-anchor="middle" >JavaScript + HTML</text>

  <use  class="box" xlink:href="#box" x="400" y="20" />
  <text class="object" x="475" y="30"  text-anchor="middle" >Client Environment</text>
  <text class="desc" x="475" y="42"  text-anchor="middle" >responses from servers</text>
  <text class="desc" x="475" y="54"  text-anchor="middle" ></text>
  <text class="tech" x="475" y="66"  text-anchor="middle" >Javascript + JSON</text>
  
  <use  class="box" xlink:href="#box" x="600" y="20" />
  <text class="object" x="675" y="30"  text-anchor="middle" >Dynamic Drawings</text>
  <text class="desc" x="675" y="42"  text-anchor="middle" >graphs, images, and maps</text>
  <text class="desc" x="675" y="54"  text-anchor="middle" ></text>
  <text class="tech" x="675" y="66"  text-anchor="middle" >JavaScript + SVG</text>


  <!-- Server rendering level -->
  <use  class="box" xlink:href="#box" x="400" y="100" />
  <text class="object" x="475" y="110"  text-anchor="middle" >Page Rendering</text>
  <text class="desc" x="475" y="122"  text-anchor="middle" >combine layout and data</text>
  <text class="desc" x="475" y="134"  text-anchor="middle" ></text>
  <text class="tech" x="475" y="146"  text-anchor="middle" >HTML + CSS</text>

  <use  class="box" xlink:href="#box" x="600" y="100" />
  <text class="object" x="675" y="110"  text-anchor="middle" >Layout</text>
  <text class="desc" x="675" y="122"  text-anchor="middle" >page structure</text>
  <text class="desc" x="675" y="134"  text-anchor="middle" ></text>
  <text class="tech" x="675" y="146"  text-anchor="middle" >PHP + CSS</text>
  
  <!-- Server request handling -->
  <use  class="box" xlink:href="#box" x="200" y="180" />
  <text class="object" x="275" y="190"  text-anchor="middle" >POST Handling</text>
  <text class="desc" x="275" y="202"  text-anchor="middle" >routes POST requests</text>
  <text class="desc" x="275" y="214"  text-anchor="middle" ></text>
  <text class="tech" x="275" y="226"  text-anchor="middle" >PHP</text>
  
  <use  class="box" xlink:href="#box" x="400" y="180" />
  <text class="object" x="475" y="190"  text-anchor="middle" >Authentication</text>
  <text class="desc" x="475" y="202"  text-anchor="middle" >sessions and permissions</text>
  <text class="desc" x="475" y="214"  text-anchor="middle" ></text>
  <text class="tech" x="475" y="226"  text-anchor="middle" >PHP</text>

  <use  class="box" xlink:href="#box" x="700" y="180" />
  <text class="object" x="775" y="190"  text-anchor="middle" >Views</text>
  <text class="desc" x="775" y="202"  text-anchor="middle" >rendering of data/content</text>
  <text class="desc" x="775" y="214"  text-anchor="middle" ></text>
  <text class="tech" x="775" y="226"  text-anchor="middle" >PHP + HTML</text>

  <!-- Processing and Validation -->
  <use  class="box" xlink:href="#box" x="400" y="260" />
  <text class="object" x="475" y="270"  text-anchor="middle" >Input Validation</text>
  <text class="desc" x="475" y="282"  text-anchor="middle" >fields validation</text>
  <text class="desc" x="475" y="294"  text-anchor="middle" ></text>
  <text class="tech" x="475" y="306"  text-anchor="middle" >PHP</text>

  <use  class="box" xlink:href="#box" x="800" y="260" />
  <text class="object" x="875" y="270"  text-anchor="middle" >Data Analysis</text>
  <text class="desc" x="875" y="282"  text-anchor="middle" >filters to process large</text>
  <text class="desc" x="875" y="294"  text-anchor="middle" >data efficiently</text>
  <text class="tech" x="875" y="306"  text-anchor="middle" >PHP [+ C + Python]</text>

  <!-- Data Abstraction -->
  <use  class="box" xlink:href="#box" x="200" y="340" />
  <text class="object" x="275" y="350"  text-anchor="middle" >Places</text>
  <text class="desc" x="275" y="362"  text-anchor="middle" >mappable objects</text>
  <text class="desc" x="275" y="374"  text-anchor="middle" ></text>
  <text class="tech" x="275" y="386"  text-anchor="middle" >PHP (PDO)</text>

  <use  class="box" xlink:href="#box" x="400" y="340" />
  <text class="object" x="475" y="350"  text-anchor="middle" >People</text>
  <text class="desc" x="475" y="362"  text-anchor="middle" >user, group, role objects</text>
  <text class="desc" x="475" y="374"  text-anchor="middle" ></text>
  <text class="tech" x="475" y="386"  text-anchor="middle" >PHP (PDO)</text>

  <use  class="box" xlink:href="#box" x="600" y="340" />
  <text class="object" x="675" y="350"  text-anchor="middle" >Content</text>
  <text class="desc" x="675" y="362"  text-anchor="middle" >text and images</text>
  <text class="desc" x="675" y="374"  text-anchor="middle" ></text>
  <text class="tech" x="675" y="386"  text-anchor="middle" >PHP (PDO)</text>
  
  <use  class="box" xlink:href="#box" x="800" y="340" />
  <text class="object" x="875" y="350"  text-anchor="middle" >Numbers</text>
  <text class="desc" x="875" y="362"  text-anchor="middle" >objects related to large</text>
  <text class="desc" x="875" y="374"  text-anchor="middle" >datasets</text>
  <text class="tech" x="875" y="386"  text-anchor="middle" >PHP (PDO)</text>
  

  <!-- Data Access -->
  <use  class="box" xlink:href="#box" x="500" y="420" />
  <text class="object" x="575" y="430"  text-anchor="middle" >Database</text>
  <text class="desc" x="575" y="442"  text-anchor="middle" >read and write to database</text>
  <text class="desc" x="575" y="454"  text-anchor="middle" ></text>
  <text class="tech" x="575" y="466"  text-anchor="middle" >MariaDB + File System</text>
  
  <!-- The disk -->
  <path class="disk" d="M525,500 a 50,15 0 0,1 100,0 a 50,15 0 0,1 -100,0 v 80 a 50,15 0 0,0 100,0 v -80 m -100,20 a 50,15 0 0,0 100,0 m -100,20 a 50,15 0 0,0 100,0 m -100,20 a 50,15 0 0,0 100,0" />

</svg>
